<?xml version="1.0" standalone="no"?>
<!DOCTYPE svg PUBLIC "-//W3C//DTD SVG 1.1//EN" "http://www.w3.org/Graphics/SVG/1.1/DTD/svg11.dtd">
<svg width="100%" height="100%" viewBox="0 0 284 284" version="1.1" xmlns="http://www.w3.org/2000/svg" xmlns:xlink="http://www.w3.org/1999/xlink" xml:space="preserve" style="fill-rule:evenodd;clip-rule:evenodd;stroke-linejoin:round;stroke-miterlimit:1.41421;">
    <g id="Google_x2B_">
        <path d="M109.271,134.157C109.271,119.224 142.125,114.893 142.125,79.802C142.125,58.747 140.183,46.054 123.607,38.588C123.607,33.36 152.875,36.795 152.875,27.038C147.798,27.038 88.765,27.038 88.765,27.038C88.765,27.038 23.856,28.628 23.856,83.582C23.856,138.535 80.601,132.164 80.601,132.164C80.601,132.164 80.601,140.48 80.601,146.104C80.601,151.727 88.216,149.837 89.162,161.233C85.328,161.233 10.317,159.245 10.317,209.017C10.317,258.789 76.42,256.405 76.42,256.405C76.42,256.405 152.876,259.891 152.876,198.07C152.875,161.037 109.271,149.091 109.271,134.157ZM53.884,86.77C47.883,64.702 55.793,43.338 71.554,39.055C87.315,34.766 104.956,49.181 110.957,71.249C116.962,93.322 109.053,114.689 93.291,118.978C77.528,123.26 59.888,108.841 53.884,86.77ZM86.714,240.51C60.252,242.304 37.743,228.112 36.439,208.813C35.128,189.512 55.518,172.414 81.98,170.622C108.448,168.83 130.963,183.017 132.273,202.315C133.578,221.623 113.181,238.718 86.714,240.51Z" style="fill:rgb(124,124,124);fill-rule:nonzero;"/>
        <path d="M273.149,71.654L273.149,84.795L228.52,84.795L228.52,129.378L215.378,129.378L215.378,84.795L170.793,84.795L170.793,71.654L215.378,71.654L215.378,27.023L228.52,27.023L228.52,71.654L273.149,71.654Z" style="fill:rgb(124,124,124);fill-rule:nonzero;"/>
    </g>
</svg>
