<?xml version="1.0" standalone="no"?>
<!DOCTYPE svg PUBLIC "-//W3C//DTD SVG 1.1//EN" "http://www.w3.org/Graphics/SVG/1.1/DTD/svg11.dtd">
<svg width="100%" height="100%" viewBox="0 0 284 284" version="1.1" xmlns="http://www.w3.org/2000/svg" xmlns:xlink="http://www.w3.org/1999/xlink" xml:space="preserve" style="fill-rule:evenodd;clip-rule:evenodd;stroke-linejoin:round;stroke-miterlimit:1.41421;">
    <path id="Twitter" d="M270.232,67.508C261.071,71.571 251.225,74.317 240.892,75.552C251.438,69.23 259.538,59.219 263.353,47.289C253.482,53.144 242.549,57.395 230.913,59.685C221.595,49.757 208.318,43.554 193.625,43.554C165.413,43.554 142.54,66.426 142.54,94.638C142.54,98.641 142.991,102.541 143.862,106.28C101.406,104.149 63.762,83.812 38.567,52.904C34.17,60.449 31.65,69.224 31.65,78.587C31.65,96.311 40.668,111.946 54.376,121.108C46.002,120.842 38.125,118.544 31.238,114.717C31.233,114.931 31.233,115.144 31.233,115.36C31.233,140.111 48.842,160.758 72.211,165.452C67.925,166.619 63.412,167.244 58.753,167.244C55.461,167.244 52.261,166.923 49.141,166.327C55.642,186.622 74.509,201.393 96.862,201.805C79.379,215.507 57.352,223.673 33.417,223.673C29.293,223.673 25.228,223.432 21.231,222.958C43.838,237.452 70.691,245.912 99.54,245.912C193.505,245.912 244.889,168.068 244.889,100.561C244.889,98.347 244.839,96.144 244.741,93.952C254.724,86.75 263.384,77.752 270.232,67.508Z" style="fill:rgb(124,124,124);fill-rule:nonzero;"/>
</svg>
