<?xml version="1.0" standalone="no"?>
<!DOCTYPE svg PUBLIC "-//W3C//DTD SVG 1.1//EN" "http://www.w3.org/Graphics/SVG/1.1/DTD/svg11.dtd">
<svg width="100%" height="100%" viewBox="0 0 284 284" version="1.1" xmlns="http://www.w3.org/2000/svg" xmlns:xlink="http://www.w3.org/1999/xlink" xml:space="preserve" style="fill-rule:evenodd;clip-rule:evenodd;stroke-linejoin:round;stroke-miterlimit:1.41421;">
    <path d="M78.732,97.532L105.732,97.532L105.732,85.283L105.732,73.283L105.732,71.282C105.732,59.732 106.03,41.882 114.43,30.833C123.28,19.131 135.43,11.183 156.331,11.183C190.379,11.183 204.731,16.032 204.731,16.032L197.981,56.033C197.981,56.033 186.731,52.782 176.231,52.782C165.731,52.782 156.331,56.532 156.331,67.032L156.331,97.532L199.379,97.532L196.379,136.582L156.331,136.582L156.331,272.282L105.731,272.282L105.731,136.582L78.731,136.582L78.731,97.532L78.732,97.532Z" style="fill:rgb(124,124,124);fill-rule:nonzero;"/>
</svg>
